<svg width="74" height="14" viewBox="0 0 74 14" fill="none" xmlns="http://www.w3.org/2000/svg">
<path d="M65.2241 3.50568V11.0359H66.2899C66.5581 11.0359 66.7767 10.8186 66.7767 10.5506V3.02008H65.711C65.4426 3.02008 65.2241 3.23772 65.2241 3.50568Z" fill="#333D47"/>
<path d="M57.8572 3.50568V4.4915H60.3347V11.0359H61.8872V4.4915H63.9004C64.1689 4.4915 64.3874 4.27329 64.3874 4.00552V3.02008H58.3444C58.0754 3.02008 57.8572 3.23772 57.8572 3.50568Z" fill="#333D47"/>
<path d="M48.7061 5.65551C48.7061 4.02978 47.5072 3.02008 45.5779 3.02008H43.3782C43.1096 3.02008 42.8911 3.23791 42.8911 3.50577V10.5506C42.8911 10.8184 43.1097 11.0361 43.3782 11.0361H44.4434V4.49131H45.7214C46.6034 4.49131 47.1092 4.91575 47.1092 5.65551C47.1092 6.39547 46.6034 6.81972 45.7214 6.81972H44.7817L47.2553 10.7985C47.258 10.8033 47.261 10.8083 47.2645 10.8134C47.3545 10.9531 47.5072 11.0361 47.6744 11.0361H49.1576L47.242 7.97288C48.1879 7.54259 48.7061 6.72694 48.7061 5.65551Z" fill="#333D47"/>
<path d="M53.6175 2.86639C52.4913 2.86639 51.4457 3.28422 50.6722 4.04315C49.8869 4.81454 49.4543 5.87426 49.4543 7.02809C49.4543 8.18172 49.8869 9.24192 50.6722 10.0131C51.4457 10.7719 52.4913 11.1899 53.6175 11.1899C54.7435 11.1899 55.7912 10.772 56.5673 10.0131C57.3565 9.24097 57.7911 8.18068 57.7911 7.02809C57.7911 5.8753 57.3565 4.81492 56.5673 4.04296C55.7912 3.28422 54.7436 2.86639 53.6175 2.86639ZM53.6175 9.66399C52.1062 9.66399 51.0508 8.58011 51.0508 7.02818C51.0508 5.47635 52.1062 4.39237 53.6175 4.39237C55.1345 4.39237 56.1948 5.47625 56.1948 7.02818C56.1948 8.58011 55.1345 9.66399 53.6175 9.66399Z" fill="#333D47"/>
<path d="M71.4093 6.24551C71.316 6.21531 71.2231 6.18567 71.1316 6.1567C70.2894 5.88884 69.5622 5.6576 69.5622 5.13926C69.5622 4.4833 70.2337 4.24942 70.8624 4.24942C71.6503 4.24942 72.2565 4.72398 72.4073 5.45789L72.4424 5.62985L73.4943 5.34237C73.6896 5.27366 73.82 5.0914 73.82 4.88414C73.82 4.83082 73.8115 4.77843 73.7944 4.72917C73.7925 4.72294 73.7905 4.71699 73.7882 4.71095C73.7852 4.70349 73.7822 4.69613 73.7789 4.68924C73.347 3.58157 72.2197 2.86597 70.9064 2.86597C69.2424 2.86597 67.9877 3.86226 67.9877 5.18296C67.9877 6.66183 69.3679 7.12638 70.1939 7.40434C70.3165 7.44417 70.4415 7.48314 70.567 7.52222C71.517 7.81867 72.4149 8.09814 72.4149 8.78505C72.4149 9.36116 71.8444 9.76323 71.0275 9.76323C69.9564 9.76323 69.3621 9.05574 69.2628 8.39818L69.2351 8.21621L68.1163 8.52163C67.9387 8.58298 67.827 8.77089 67.827 8.96579C67.827 9.06254 67.8654 9.15494 67.8654 9.15494C68.3346 10.4294 69.4911 11.1901 70.9612 11.1901C72.7503 11.1901 74 10.1786 74 8.73059C74.0004 7.07286 72.5026 6.59463 71.4093 6.24551Z" fill="#333D47"/>
<path d="M41.1302 6.61109H37.9692V7.45383C37.9692 7.7214 38.1878 7.93952 38.4562 7.93952H40.216V8.37613C39.9819 8.87306 39.2375 9.67465 37.8477 9.67465C36.3041 9.67465 35.2264 8.58651 35.2264 7.02798C35.2264 5.47615 36.2818 4.39245 37.793 4.39245C38.6691 4.39245 39.4814 4.80565 39.9122 5.4702L39.9778 5.57072L41.5434 5.15581L41.4388 4.97035C40.6953 3.65504 39.3675 2.88819 37.793 2.86572C36.6667 2.86572 35.6212 3.28412 34.848 4.04295C34.0624 4.81424 33.6299 5.87425 33.6299 7.02788C33.6299 8.1818 34.0624 9.2419 34.848 10.0131C35.6212 10.7718 36.6667 11.1901 37.793 11.1901C37.8257 11.1901 37.8584 11.19 37.8853 11.1885C37.8984 11.1885 37.9119 11.1885 37.9208 11.1882L37.9289 11.1877C37.9463 11.1873 37.964 11.1864 37.9792 11.1855C38.9129 11.1479 39.776 10.8237 40.4749 10.249C40.9509 9.8585 41.3219 9.37508 41.5774 8.8136L41.592 8.78094V7.09641C41.5919 6.83761 41.3891 6.62478 41.1302 6.61109Z" fill="#333D47"/>
<path d="M30.0437 3.02008H29.0232L25.0727 11.0361H26.49C26.6759 11.0361 26.8481 10.9286 26.9291 10.7622L27.5372 9.51509C27.5649 9.46469 27.6179 9.43297 27.6757 9.43297H31.3914C31.4369 9.43297 31.4799 9.4527 31.5097 9.48658L32.1519 10.7892C32.2379 10.9417 32.4008 11.0361 32.5761 11.0361H33.9946L30.0891 3.11191L30.0437 3.02008ZM29.5334 5.42352L30.768 7.96165H28.299L29.5334 5.42352Z" fill="#333D47"/>
<path fill-rule="evenodd" clip-rule="evenodd" d="M17.8713 9.07297L12.3063 9.0723C12.1268 9.0723 11.9813 9.15272 11.9184 9.27088C11.9158 9.27636 11.9135 9.2823 11.9111 9.28778L11.1899 10.8122L11.1603 10.8759C11.0927 10.9841 10.9545 11.0568 10.7841 11.0568L1.63408 11.0548L2.59897 9.32006C2.60191 9.31241 2.60456 9.30496 2.60881 9.29844C2.671 9.17971 2.81658 9.09892 2.9968 9.09892L9.23932 9.0656C9.25314 9.06721 9.26753 9.06721 9.28154 9.06721C9.29583 9.06721 9.30994 9.06721 9.32347 9.06655C9.48296 9.05456 9.60904 8.97896 9.66715 8.87127C9.66829 8.87014 9.66914 8.86929 9.66895 8.86882L9.68192 8.83993C9.68287 8.83861 9.68353 8.83644 9.68372 8.83493L10.3943 7.33218C10.3978 7.32491 10.4012 7.31698 10.4052 7.30981C10.4676 7.19136 10.6125 7.11123 10.7923 7.11123L16.4537 7.11189C16.6393 7.11189 16.8088 7.19032 16.9205 7.33765C16.9222 7.34001 16.9239 7.34199 16.9252 7.34398L17.8713 9.07297ZM20.5437 14L18.5199 10.257L18.4942 10.2233C18.4942 10.2228 18.4939 10.222 18.4937 10.2215C18.3958 10.1039 18.2278 10.0247 18.0488 10.0247L13.0343 10.0238C12.8578 10.0238 12.7149 10.1009 12.6501 10.2165L12.6316 10.2559L11.9078 11.7885C11.9044 11.796 11.9007 11.8023 11.8981 11.8094C11.8348 11.9281 11.6899 12.0076 11.5101 12.0076L1.37047 12.0066C1.22679 12.0066 1.08273 12.0517 0.980696 12.2282L0 13.9964L20.5437 14ZM14.3613 2.68083L8.30558 2.68036C8.15129 2.68036 8.02645 2.76021 7.97268 2.87894C7.96928 2.8863 7.96596 2.89366 7.96397 2.90169L7.12147 4.97206C7.11949 4.97895 7.11627 4.98546 7.11343 4.99235C7.05919 5.11052 6.93434 5.19093 6.77959 5.19093L4.92515 5.19046L7.62181 0.232369C7.6751 0.082773 7.81187 0 7.96899 0L12.6432 0.000471652C12.7968 0.000471652 12.9409 0.0802245 13.0252 0.197353L13.0266 0.199335C13.0297 0.204243 13.0471 0.229632 13.0481 0.233219L14.3613 2.68083ZM16.2862 6.16316L15.0218 3.849C15.0171 3.84155 15.0128 3.83475 15.0076 3.82824C14.92 3.70979 14.769 3.62919 14.6076 3.62919L8.92044 3.629C8.75821 3.629 8.62863 3.70913 8.57259 3.82786C8.56881 3.83484 8.56568 3.84164 8.56303 3.84947L7.70046 5.88558C7.69261 5.91729 7.67983 5.94759 7.6626 5.97496C7.60297 6.07085 7.49043 6.1356 7.35479 6.14202C7.34722 6.14202 7.3404 6.14202 7.33255 6.14202C7.32564 6.14202 7.31854 6.14202 7.31078 6.14202L4.58923 6.14164C4.44498 6.14117 4.31247 6.21762 4.23485 6.35683L3.29315 8.05722L8.74514 8.11527C8.86024 8.10149 8.95451 8.04382 9.01074 7.96237L9.05873 7.84892L9.67492 6.3944C9.67577 6.3927 9.67605 6.39175 9.67671 6.39043C9.67965 6.38024 9.68447 6.37024 9.68854 6.36108C9.68921 6.36023 9.68949 6.35891 9.69072 6.35825C9.7478 6.24131 9.87653 6.16297 10.0361 6.16297L16.2862 6.16316Z" fill="#00796B"/>
</svg>
